<svg id="Layer_1" data-name="Layer 1" xmlns="http://www.w3.org/2000/svg" viewBox="0 0 474 407"><defs><style>.cls-1{fill:#fff;stroke:#b7b7b7;}.cls-1,.cls-2,.cls-5,.cls-6,.cls-7{stroke-miterlimit:10;}.cls-2{fill:#b7b7b7;stroke:#fff;}.cls-3{fill:#f53240;}.cls-4{fill:#999;}.cls-5,.cls-6,.cls-7{fill:none;stroke:#000;stroke-linecap:round;stroke-width:2px;}.cls-6{stroke-dasharray:6.02 12.03;}.cls-7{stroke-dasharray:5.91 11.81;}</style></defs><title>algo</title><rect class="cls-1" x="5.89" y="46" width="92.21" height="109.5" rx="7.89" ry="7.89"/><rect class="cls-2" x="116.61" y="55.24" width="76.64" height="91.01" rx="6.56" ry="6.56"/><rect class="cls-1" x="208.61" y="55.24" width="76.64" height="91.01" rx="6.56" ry="6.56"/><rect class="cls-2" x="300.46" y="55.24" width="76.64" height="91.01" rx="6.56" ry="6.56"/><rect class="cls-1" x="5.89" y="269" width="92.21" height="109.5" rx="7.89" ry="7.89"/><rect class="cls-2" x="116.61" y="278.24" width="76.64" height="91.01" rx="6.56" ry="6.56"/><rect class="cls-2" x="208.61" y="278.24" width="76.64" height="91.01" rx="6.56" ry="6.56"/><rect class="cls-2" x="300.46" y="278.24" width="76.64" height="91.01" rx="6.56" ry="6.56"/><path class="cls-3" d="M173.8,250.71a10.3,10.3,0,0,1-4.18-4.28,15.07,15.07,0,0,1,0-13,10.3,10.3,0,0,1,4.18-4.28,13.88,13.88,0,0,1,13.89.78,2.64,2.64,0,0,1,.83.88,2.58,2.58,0,0,1,.26,1.22,2.73,2.73,0,0,1-.6,1.78,1.8,1.8,0,0,1-1.44.73,2.59,2.59,0,0,1-.92-.15,5.47,5.47,0,0,1-1-.49,9.63,9.63,0,0,0-2.24-1,7.76,7.76,0,0,0-2.18-.31,5.46,5.46,0,0,0-4.5,1.82q-1.48,1.82-1.48,5.53t1.48,5.56a5.46,5.46,0,0,0,4.5,1.82,6.09,6.09,0,0,0,2-.32q1-.32,2.45-1,.71-.37,1.05-.51a2.19,2.19,0,0,1,.82-.14,1.8,1.8,0,0,1,1.44.73,2.74,2.74,0,0,1,.6,1.79,2.32,2.32,0,0,1-1.09,2.11,13.88,13.88,0,0,1-13.89.78Z"/><path class="cls-3" d="M194.64,251.1a7.69,7.69,0,0,1-3.23-3,9.08,9.08,0,0,1-1.14-4.62,9,9,0,0,1,1.14-4.61,7.64,7.64,0,0,1,3.21-3,11.74,11.74,0,0,1,9.72,0,7.64,7.64,0,0,1,3.21,3,9,9,0,0,1,1.14,4.61,9.08,9.08,0,0,1-1.14,4.62,7.72,7.72,0,0,1-3.21,3,11.53,11.53,0,0,1-9.71,0Zm8.08-7.67q0-4.22-3.23-4.22t-3.23,4.22q0,4.22,3.23,4.22T202.71,243.43Z"/><path class="cls-3" d="M223.89,235.36a2.4,2.4,0,0,1,.68,1.85,2.66,2.66,0,0,1-.63,2,3.83,3.83,0,0,1-2.26.78l-1,.1a3.62,3.62,0,0,0-2.43,1.07,3.55,3.55,0,0,0-.73,2.36v5.81a2.52,2.52,0,0,1-.87,2.09,3.69,3.69,0,0,1-4.32,0,2.52,2.52,0,0,1-.87-2.09V237.55a2.45,2.45,0,0,1,.87-2,3.18,3.18,0,0,1,2.09-.71,2.93,2.93,0,0,1,2,.68,2.41,2.41,0,0,1,.77,1.9v.65a4.53,4.53,0,0,1,1.78-2.31,5.15,5.15,0,0,1,2.6-.88l.48,0A2.29,2.29,0,0,1,223.89,235.36Z"/><path class="cls-3" d="M238.14,235.36a2.4,2.4,0,0,1,.68,1.85,2.66,2.66,0,0,1-.63,2,3.83,3.83,0,0,1-2.26.78l-1,.1a3.62,3.62,0,0,0-2.43,1.07,3.55,3.55,0,0,0-.73,2.36v5.81a2.52,2.52,0,0,1-.87,2.09,3.69,3.69,0,0,1-4.32,0,2.52,2.52,0,0,1-.87-2.09V237.55a2.45,2.45,0,0,1,.87-2,3.18,3.18,0,0,1,2.09-.71,2.93,2.93,0,0,1,2,.68,2.41,2.41,0,0,1,.77,1.9v.65a4.53,4.53,0,0,1,1.78-2.31,5.15,5.15,0,0,1,2.6-.88l.48,0A2.29,2.29,0,0,1,238.14,235.36Z"/><path class="cls-3" d="M254.48,247.14a2.47,2.47,0,0,1,.49,1.6,2.25,2.25,0,0,1-1.33,2.07,13.18,13.18,0,0,1-2.74,1,12.18,12.18,0,0,1-2.91.39,10.59,10.59,0,0,1-4.86-1.05,7.49,7.49,0,0,1-3.2-3,9.19,9.19,0,0,1-1.12-4.62,9.34,9.34,0,0,1,1.07-4.5,7.71,7.71,0,0,1,3-3.09,8.54,8.54,0,0,1,4.33-1.1,8.09,8.09,0,0,1,4.11,1,7,7,0,0,1,2.74,2.89,9.41,9.41,0,0,1,1,4.39,1.83,1.83,0,0,1-.36,1.21,1.28,1.28,0,0,1-1,.42h-9a3.72,3.72,0,0,0,1.05,2.35,3.57,3.57,0,0,0,2.41.71,6.16,6.16,0,0,0,1.56-.19,15,15,0,0,0,1.6-.53q.51-.2,1-.36a3,3,0,0,1,.9-.15A1.56,1.56,0,0,1,254.48,247.14Zm-9-7.53a3.67,3.67,0,0,0-.85,2.23H250q-.2-3-2.58-3A2.48,2.48,0,0,0,245.48,239.61Z"/><path class="cls-3" d="M259.39,249.86a8.36,8.36,0,0,1-2.38-6.29,9.09,9.09,0,0,1,1.16-4.62,7.84,7.84,0,0,1,3.25-3.09,10.19,10.19,0,0,1,4.78-1.09,11.25,11.25,0,0,1,2.86.37,9,9,0,0,1,2.52,1.05,2.16,2.16,0,0,1,1.05,2,2.81,2.81,0,0,1-.49,1.72,1.52,1.52,0,0,1-1.27.66,3.22,3.22,0,0,1-1-.15,6.63,6.63,0,0,1-1.05-.46,11.39,11.39,0,0,0-1.16-.46,3.42,3.42,0,0,0-1.05-.15q-3.37,0-3.37,4.11a4.84,4.84,0,0,0,.87,3.11,3,3,0,0,0,2.5,1.07,3.62,3.62,0,0,0,1.07-.15,7.55,7.55,0,0,0,1.1-.46q.68-.3,1.1-.46a2.75,2.75,0,0,1,.94-.15,1.52,1.52,0,0,1,1.27.66,2.8,2.8,0,0,1,.49,1.72,2.52,2.52,0,0,1-.27,1.17,1.89,1.89,0,0,1-.75.8,10.79,10.79,0,0,1-5.71,1.43A8.87,8.87,0,0,1,259.39,249.86Z"/><path class="cls-3" d="M287.17,249.83a2,2,0,0,1-.92,1.77,4.42,4.42,0,0,1-2.62.48l-1-.07a7,7,0,0,1-4.64-1.85,6.16,6.16,0,0,1-1.58-4.5v-6h-1q-2.72,0-2.72-2.24t2.72-2.21h1V233a2.69,2.69,0,0,1,.82-2.06,3.58,3.58,0,0,1,4.42,0,2.69,2.69,0,0,1,.82,2.06v2.21h1.87q2.72,0,2.72,2.21t-2.72,2.24h-1.87v6.53a1.58,1.58,0,0,0,.39,1.09,1.39,1.39,0,0,0,1,.48l1,.07Q287.17,247.92,287.17,249.83Z"/><path class="cls-4" d="M169.58,27.27a3.06,3.06,0,0,1-.83-2.26V6.82a3,3,0,0,1,.83-2.23,3.05,3.05,0,0,1,2.26-.83,3.16,3.16,0,0,1,2.31.83A3,3,0,0,1,175,6.82V25a3,3,0,0,1-.85,2.26,3.16,3.16,0,0,1-2.31.83A3.05,3.05,0,0,1,169.58,27.27Z"/><path class="cls-4" d="M194.65,12.55A8.44,8.44,0,0,1,196.12,18v7.34a2.63,2.63,0,0,1-.82,2,3.64,3.64,0,0,1-4.42,0,2.63,2.63,0,0,1-.82-2V18.24a3.57,3.57,0,0,0-.53-2.18,1.88,1.88,0,0,0-1.58-.68,2.79,2.79,0,0,0-2.16.87,3.3,3.3,0,0,0-.8,2.33v6.73a2.63,2.63,0,0,1-.82,2,3.64,3.64,0,0,1-4.42,0,2.63,2.63,0,0,1-.82-2V13.55a2.51,2.51,0,0,1,.85-2,3.17,3.17,0,0,1,2.21-.77,2.89,2.89,0,0,1,2.06.71,2.44,2.44,0,0,1,.77,1.87,5.81,5.81,0,0,1,2.28-2,7,7,0,0,1,3.09-.68A5.42,5.42,0,0,1,194.65,12.55Z"/><path class="cls-4" d="M201.11,25.86a8.36,8.36,0,0,1-2.38-6.29,9.09,9.09,0,0,1,1.16-4.62,7.84,7.84,0,0,1,3.25-3.09,10.19,10.19,0,0,1,4.78-1.09,11.25,11.25,0,0,1,2.86.37,9,9,0,0,1,2.52,1.05,2.16,2.16,0,0,1,1.05,2,2.81,2.81,0,0,1-.49,1.72,1.52,1.52,0,0,1-1.27.66,3.22,3.22,0,0,1-1-.15,6.63,6.63,0,0,1-1.05-.46,11.39,11.39,0,0,0-1.16-.46,3.42,3.42,0,0,0-1.05-.15q-3.37,0-3.37,4.11a4.84,4.84,0,0,0,.87,3.11,3,3,0,0,0,2.5,1.07,3.62,3.62,0,0,0,1.07-.15,7.55,7.55,0,0,0,1.1-.46q.68-.3,1.1-.46a2.75,2.75,0,0,1,.94-.15,1.52,1.52,0,0,1,1.27.66,2.8,2.8,0,0,1,.49,1.72,2.52,2.52,0,0,1-.27,1.17,1.89,1.89,0,0,1-.75.8,10.79,10.79,0,0,1-5.71,1.43A8.87,8.87,0,0,1,201.11,25.86Z"/><path class="cls-4" d="M220.1,27.1a7.69,7.69,0,0,1-3.23-3,9.08,9.08,0,0,1-1.14-4.62,9,9,0,0,1,1.14-4.61,7.64,7.64,0,0,1,3.21-3,11.74,11.74,0,0,1,9.72,0,7.64,7.64,0,0,1,3.21,3,9,9,0,0,1,1.14,4.61A9.08,9.08,0,0,1,233,24.06a7.72,7.72,0,0,1-3.21,3,11.53,11.53,0,0,1-9.71,0Zm8.08-7.67q0-4.22-3.23-4.22t-3.23,4.22q0,4.22,3.23,4.22T228.18,19.43Z"/><path class="cls-4" d="M249.36,11.36a2.4,2.4,0,0,1,.68,1.85,2.66,2.66,0,0,1-.63,2,3.83,3.83,0,0,1-2.26.78l-1,.1a3.62,3.62,0,0,0-2.43,1.07A3.55,3.55,0,0,0,243,19.5v5.81a2.52,2.52,0,0,1-.87,2.09,3.69,3.69,0,0,1-4.32,0,2.52,2.52,0,0,1-.87-2.09V13.55a2.45,2.45,0,0,1,.87-2,3.18,3.18,0,0,1,2.09-.71,2.93,2.93,0,0,1,2,.68,2.41,2.41,0,0,1,.77,1.9v.65a4.53,4.53,0,0,1,1.78-2.31,5.15,5.15,0,0,1,2.6-.88l.48,0A2.29,2.29,0,0,1,249.36,11.36Z"/><path class="cls-4" d="M263.61,11.36a2.4,2.4,0,0,1,.68,1.85,2.66,2.66,0,0,1-.63,2,3.83,3.83,0,0,1-2.26.78l-1,.1a3.62,3.62,0,0,0-2.43,1.07,3.55,3.55,0,0,0-.73,2.36v5.81a2.52,2.52,0,0,1-.87,2.09,3.69,3.69,0,0,1-4.32,0,2.52,2.52,0,0,1-.87-2.09V13.55a2.45,2.45,0,0,1,.87-2,3.18,3.18,0,0,1,2.09-.71,2.93,2.93,0,0,1,2,.68,2.41,2.41,0,0,1,.77,1.9v.65a4.53,4.53,0,0,1,1.78-2.31,5.15,5.15,0,0,1,2.6-.88l.48,0A2.29,2.29,0,0,1,263.61,11.36Z"/><path class="cls-4" d="M279.94,23.14a2.47,2.47,0,0,1,.49,1.6,2.25,2.25,0,0,1-1.33,2.07,13.18,13.18,0,0,1-2.74,1,12.18,12.18,0,0,1-2.91.39,10.59,10.59,0,0,1-4.86-1.05,7.49,7.49,0,0,1-3.2-3,9.19,9.19,0,0,1-1.12-4.62,9.34,9.34,0,0,1,1.07-4.5,7.71,7.71,0,0,1,3-3.09,8.54,8.54,0,0,1,4.33-1.1,8.09,8.09,0,0,1,4.11,1,7,7,0,0,1,2.74,2.89,9.41,9.41,0,0,1,1,4.39,1.83,1.83,0,0,1-.36,1.21,1.28,1.28,0,0,1-1,.42h-9A3.72,3.72,0,0,0,271.19,23a3.57,3.57,0,0,0,2.41.71,6.16,6.16,0,0,0,1.56-.19,15,15,0,0,0,1.6-.53q.51-.2,1-.36a3,3,0,0,1,.9-.15A1.56,1.56,0,0,1,279.94,23.14Zm-9-7.53a3.67,3.67,0,0,0-.85,2.23h5.34q-.2-3-2.58-3A2.48,2.48,0,0,0,270.95,15.61Z"/><path class="cls-4" d="M284.86,25.86a8.36,8.36,0,0,1-2.38-6.29,9.09,9.09,0,0,1,1.16-4.62,7.84,7.84,0,0,1,3.25-3.09,10.19,10.19,0,0,1,4.78-1.09,11.25,11.25,0,0,1,2.86.37A9,9,0,0,1,297,12.19a2.16,2.16,0,0,1,1.05,2,2.81,2.81,0,0,1-.49,1.72,1.52,1.52,0,0,1-1.27.66,3.22,3.22,0,0,1-1-.15,6.63,6.63,0,0,1-1.05-.46,11.39,11.39,0,0,0-1.16-.46,3.42,3.42,0,0,0-1.05-.15q-3.37,0-3.37,4.11a4.84,4.84,0,0,0,.87,3.11,3,3,0,0,0,2.5,1.07,3.62,3.62,0,0,0,1.07-.15,7.55,7.55,0,0,0,1.1-.46q.68-.3,1.1-.46a2.75,2.75,0,0,1,.94-.15,1.52,1.52,0,0,1,1.27.66,2.8,2.8,0,0,1,.49,1.72,2.52,2.52,0,0,1-.27,1.17,1.89,1.89,0,0,1-.75.8,10.79,10.79,0,0,1-5.71,1.43A8.87,8.87,0,0,1,284.86,25.86Z"/><path class="cls-4" d="M312.63,25.83a2,2,0,0,1-.92,1.77,4.42,4.42,0,0,1-2.62.48l-1-.07a7,7,0,0,1-4.64-1.85,6.16,6.16,0,0,1-1.58-4.5v-6h-1q-2.72,0-2.72-2.24t2.72-2.21h1V9a2.69,2.69,0,0,1,.82-2.06,3.58,3.58,0,0,1,4.42,0A2.69,2.69,0,0,1,308,9v2.21h1.87q2.72,0,2.72,2.21t-2.72,2.24H308v6.53a1.58,1.58,0,0,0,.39,1.09,1.39,1.39,0,0,0,1,.48l1,.07Q312.63,23.92,312.63,25.83Z"/><line class="cls-5" x1="52" y1="386" x2="52" y2="389"/><polyline class="cls-5" points="52 400 52 403 55 403"/><line class="cls-6" x1="67.03" y1="403" x2="421.98" y2="403"/><polyline class="cls-5" points="428 403 431 403 431 400"/><line class="cls-5" x1="431" y1="389" x2="431" y2="386"/><line class="cls-5" x1="52" y1="162" x2="52" y2="165"/><polyline class="cls-5" points="52 176 52 179 55 179"/><line class="cls-7" x1="66.81" y1="179" x2="238.09" y2="179"/><polyline class="cls-5" points="244 179 247 179 247 176"/><line class="cls-5" x1="247" y1="165" x2="247" y2="162"/><rect class="cls-2" x="392.46" y="55.24" width="76.64" height="91.01" rx="6.56" ry="6.56"/><rect class="cls-1" x="392.61" y="278.24" width="76.64" height="91.01" rx="6.56" ry="6.56"/></svg>