<svg id="Layer_1" data-name="Layer 1" xmlns="http://www.w3.org/2000/svg" viewBox="0 0 443 407"><defs><style>.cls-1{fill:#fff;stroke:#b7b7b7;}.cls-1,.cls-2,.cls-5,.cls-6,.cls-7{stroke-miterlimit:10;}.cls-2,.cls-8{fill:#b7b7b7;}.cls-2{stroke:#fff;}.cls-3{fill:#f53240;}.cls-4{fill:#999;}.cls-5,.cls-6,.cls-7{fill:none;stroke:#000;stroke-linecap:round;stroke-width:2px;}.cls-6{stroke-dasharray:6.02 12.03;}.cls-7{stroke-dasharray:5.91 11.81;}</style></defs><title>algo</title><rect class="cls-1" x="2.89" y="47" width="92.21" height="109.5" rx="7.89" ry="7.89"/><rect class="cls-2" x="113.61" y="56.24" width="76.64" height="91.01" rx="6.56" ry="6.56"/><rect class="cls-1" x="205.61" y="56.24" width="76.64" height="91.01" rx="6.56" ry="6.56"/><rect class="cls-2" x="297.46" y="56.24" width="76.64" height="91.01" rx="6.56" ry="6.56"/><rect class="cls-1" x="2.89" y="270" width="92.21" height="109.5" rx="7.89" ry="7.89"/><rect class="cls-2" x="113.61" y="279.24" width="76.64" height="91.01" rx="6.56" ry="6.56"/><rect class="cls-2" x="205.61" y="279.24" width="76.64" height="91.01" rx="6.56" ry="6.56"/><rect class="cls-2" x="297.46" y="279.24" width="76.64" height="91.01" rx="6.56" ry="6.56"/><path class="cls-3" d="M170.8,251.71a10.3,10.3,0,0,1-4.18-4.28,15.07,15.07,0,0,1,0-13,10.3,10.3,0,0,1,4.18-4.28,13.88,13.88,0,0,1,13.89.78,2.64,2.64,0,0,1,.83.88,2.58,2.58,0,0,1,.26,1.22,2.73,2.73,0,0,1-.6,1.78,1.8,1.8,0,0,1-1.44.73,2.59,2.59,0,0,1-.92-.15,5.47,5.47,0,0,1-1-.49,9.63,9.63,0,0,0-2.24-1,7.76,7.76,0,0,0-2.18-.31,5.46,5.46,0,0,0-4.5,1.82q-1.48,1.82-1.48,5.53t1.48,5.56a5.46,5.46,0,0,0,4.5,1.82,6.09,6.09,0,0,0,2-.32q1-.32,2.45-1,.71-.37,1.05-.51a2.19,2.19,0,0,1,.82-.14,1.8,1.8,0,0,1,1.44.73,2.74,2.74,0,0,1,.6,1.79,2.32,2.32,0,0,1-1.09,2.11,13.88,13.88,0,0,1-13.89.78Z"/><path class="cls-3" d="M191.64,252.1a7.69,7.69,0,0,1-3.23-3,9.08,9.08,0,0,1-1.14-4.62,9,9,0,0,1,1.14-4.61,7.64,7.64,0,0,1,3.21-3,11.74,11.74,0,0,1,9.72,0,7.64,7.64,0,0,1,3.21,3,9,9,0,0,1,1.14,4.61,9.08,9.08,0,0,1-1.14,4.62,7.72,7.72,0,0,1-3.21,3,11.53,11.53,0,0,1-9.71,0Zm8.08-7.67q0-4.22-3.23-4.22t-3.23,4.22q0,4.22,3.23,4.22T199.71,244.43Z"/><path class="cls-3" d="M220.89,236.36a2.4,2.4,0,0,1,.68,1.85,2.66,2.66,0,0,1-.63,2,3.83,3.83,0,0,1-2.26.78l-1,.1a3.62,3.62,0,0,0-2.43,1.07,3.55,3.55,0,0,0-.73,2.36v5.81a2.52,2.52,0,0,1-.87,2.09,3.69,3.69,0,0,1-4.32,0,2.52,2.52,0,0,1-.87-2.09V238.55a2.45,2.45,0,0,1,.87-2,3.18,3.18,0,0,1,2.09-.71,2.93,2.93,0,0,1,2,.68,2.41,2.41,0,0,1,.77,1.9v.65a4.53,4.53,0,0,1,1.78-2.31,5.15,5.15,0,0,1,2.6-.88l.48,0A2.29,2.29,0,0,1,220.89,236.36Z"/><path class="cls-3" d="M235.14,236.36a2.4,2.4,0,0,1,.68,1.85,2.66,2.66,0,0,1-.63,2,3.83,3.83,0,0,1-2.26.78l-1,.1a3.62,3.62,0,0,0-2.43,1.07,3.55,3.55,0,0,0-.73,2.36v5.81a2.52,2.52,0,0,1-.87,2.09,3.69,3.69,0,0,1-4.32,0,2.52,2.52,0,0,1-.87-2.09V238.55a2.45,2.45,0,0,1,.87-2,3.18,3.18,0,0,1,2.09-.71,2.93,2.93,0,0,1,2,.68,2.41,2.41,0,0,1,.77,1.9v.65a4.53,4.53,0,0,1,1.78-2.31,5.15,5.15,0,0,1,2.6-.88l.48,0A2.29,2.29,0,0,1,235.14,236.36Z"/><path class="cls-3" d="M251.48,248.14a2.47,2.47,0,0,1,.49,1.6,2.25,2.25,0,0,1-1.33,2.07,13.18,13.18,0,0,1-2.74,1,12.18,12.18,0,0,1-2.91.39,10.59,10.59,0,0,1-4.86-1.05,7.49,7.49,0,0,1-3.2-3,9.19,9.19,0,0,1-1.12-4.62,9.34,9.34,0,0,1,1.07-4.5,7.71,7.71,0,0,1,3-3.09,8.54,8.54,0,0,1,4.33-1.1,8.09,8.09,0,0,1,4.11,1,7,7,0,0,1,2.74,2.89,9.41,9.41,0,0,1,1,4.39,1.83,1.83,0,0,1-.36,1.21,1.28,1.28,0,0,1-1,.42h-9a3.72,3.72,0,0,0,1.05,2.35,3.57,3.57,0,0,0,2.41.71,6.16,6.16,0,0,0,1.56-.19,15,15,0,0,0,1.6-.53q.51-.2,1-.36a3,3,0,0,1,.9-.15A1.56,1.56,0,0,1,251.48,248.14Zm-9-7.53a3.67,3.67,0,0,0-.85,2.23H247q-.2-3-2.58-3A2.48,2.48,0,0,0,242.48,240.61Z"/><path class="cls-3" d="M256.39,250.86a8.36,8.36,0,0,1-2.38-6.29,9.09,9.09,0,0,1,1.16-4.62,7.84,7.84,0,0,1,3.25-3.09,10.19,10.19,0,0,1,4.78-1.09,11.25,11.25,0,0,1,2.86.37,9,9,0,0,1,2.52,1.05,2.16,2.16,0,0,1,1.05,2,2.81,2.81,0,0,1-.49,1.72,1.52,1.52,0,0,1-1.27.66,3.22,3.22,0,0,1-1-.15,6.63,6.63,0,0,1-1.05-.46,11.39,11.39,0,0,0-1.16-.46,3.42,3.42,0,0,0-1.05-.15q-3.37,0-3.37,4.11a4.84,4.84,0,0,0,.87,3.11,3,3,0,0,0,2.5,1.07,3.62,3.62,0,0,0,1.07-.15,7.55,7.55,0,0,0,1.1-.46q.68-.3,1.1-.46a2.75,2.75,0,0,1,.94-.15,1.52,1.52,0,0,1,1.27.66,2.8,2.8,0,0,1,.49,1.72,2.52,2.52,0,0,1-.27,1.17,1.89,1.89,0,0,1-.75.8,10.79,10.79,0,0,1-5.71,1.43A8.87,8.87,0,0,1,256.39,250.86Z"/><path class="cls-3" d="M284.17,250.83a2,2,0,0,1-.92,1.77,4.42,4.42,0,0,1-2.62.48l-1-.07a7,7,0,0,1-4.64-1.85,6.16,6.16,0,0,1-1.58-4.5v-6h-1q-2.72,0-2.72-2.24t2.72-2.21h1V234a2.69,2.69,0,0,1,.82-2.06,3.58,3.58,0,0,1,4.42,0,2.69,2.69,0,0,1,.82,2.06v2.21h1.87q2.72,0,2.72,2.21t-2.72,2.24h-1.87v6.53a1.58,1.58,0,0,0,.39,1.09,1.39,1.39,0,0,0,1,.48l1,.07Q284.17,248.92,284.17,250.83Z"/><path class="cls-4" d="M166.58,28.27a3.06,3.06,0,0,1-.83-2.26V7.82a3,3,0,0,1,.83-2.23,3.05,3.05,0,0,1,2.26-.83,3.16,3.16,0,0,1,2.31.83A3,3,0,0,1,172,7.82V26a3,3,0,0,1-.85,2.26,3.16,3.16,0,0,1-2.31.83A3.05,3.05,0,0,1,166.58,28.27Z"/><path class="cls-4" d="M191.65,13.55A8.44,8.44,0,0,1,193.12,19v7.34a2.63,2.63,0,0,1-.82,2,3.64,3.64,0,0,1-4.42,0,2.63,2.63,0,0,1-.82-2V19.24a3.57,3.57,0,0,0-.53-2.18,1.88,1.88,0,0,0-1.58-.68,2.79,2.79,0,0,0-2.16.87,3.3,3.3,0,0,0-.8,2.33v6.73a2.63,2.63,0,0,1-.82,2,3.64,3.64,0,0,1-4.42,0,2.63,2.63,0,0,1-.82-2V14.55a2.51,2.51,0,0,1,.85-2,3.17,3.17,0,0,1,2.21-.77,2.89,2.89,0,0,1,2.06.71,2.44,2.44,0,0,1,.77,1.87,5.81,5.81,0,0,1,2.28-2,7,7,0,0,1,3.09-.68A5.42,5.42,0,0,1,191.65,13.55Z"/><path class="cls-4" d="M198.11,26.86a8.36,8.36,0,0,1-2.38-6.29,9.09,9.09,0,0,1,1.16-4.62,7.84,7.84,0,0,1,3.25-3.09,10.19,10.19,0,0,1,4.78-1.09,11.25,11.25,0,0,1,2.86.37,9,9,0,0,1,2.52,1.05,2.16,2.16,0,0,1,1.05,2,2.81,2.81,0,0,1-.49,1.72,1.52,1.52,0,0,1-1.27.66,3.22,3.22,0,0,1-1-.15,6.63,6.63,0,0,1-1.05-.46,11.39,11.39,0,0,0-1.16-.46,3.42,3.42,0,0,0-1.05-.15q-3.37,0-3.37,4.11a4.84,4.84,0,0,0,.87,3.11,3,3,0,0,0,2.5,1.07,3.62,3.62,0,0,0,1.07-.15,7.55,7.55,0,0,0,1.1-.46q.68-.3,1.1-.46a2.75,2.75,0,0,1,.94-.15,1.52,1.52,0,0,1,1.27.66,2.8,2.8,0,0,1,.49,1.72,2.52,2.52,0,0,1-.27,1.17,1.89,1.89,0,0,1-.75.8,10.79,10.79,0,0,1-5.71,1.43A8.87,8.87,0,0,1,198.11,26.86Z"/><path class="cls-4" d="M217.1,28.1a7.69,7.69,0,0,1-3.23-3,9.08,9.08,0,0,1-1.14-4.62,9,9,0,0,1,1.14-4.61,7.64,7.64,0,0,1,3.21-3,11.74,11.74,0,0,1,9.72,0,7.64,7.64,0,0,1,3.21,3,9,9,0,0,1,1.14,4.61A9.08,9.08,0,0,1,230,25.06a7.72,7.72,0,0,1-3.21,3,11.53,11.53,0,0,1-9.71,0Zm8.08-7.67q0-4.22-3.23-4.22t-3.23,4.22q0,4.22,3.23,4.22T225.18,20.43Z"/><path class="cls-4" d="M246.36,12.36a2.4,2.4,0,0,1,.68,1.85,2.66,2.66,0,0,1-.63,2,3.83,3.83,0,0,1-2.26.78l-1,.1a3.62,3.62,0,0,0-2.43,1.07A3.55,3.55,0,0,0,240,20.5v5.81a2.52,2.52,0,0,1-.87,2.09,3.69,3.69,0,0,1-4.32,0,2.52,2.52,0,0,1-.87-2.09V14.55a2.45,2.45,0,0,1,.87-2,3.18,3.18,0,0,1,2.09-.71,2.93,2.93,0,0,1,2,.68,2.41,2.41,0,0,1,.77,1.9v.65a4.53,4.53,0,0,1,1.78-2.31,5.15,5.15,0,0,1,2.6-.88l.48,0A2.29,2.29,0,0,1,246.36,12.36Z"/><path class="cls-4" d="M260.61,12.36a2.4,2.4,0,0,1,.68,1.85,2.66,2.66,0,0,1-.63,2,3.83,3.83,0,0,1-2.26.78l-1,.1a3.62,3.62,0,0,0-2.43,1.07,3.55,3.55,0,0,0-.73,2.36v5.81a2.52,2.52,0,0,1-.87,2.09,3.69,3.69,0,0,1-4.32,0,2.52,2.52,0,0,1-.87-2.09V14.55a2.45,2.45,0,0,1,.87-2,3.18,3.18,0,0,1,2.09-.71,2.93,2.93,0,0,1,2,.68,2.41,2.41,0,0,1,.77,1.9v.65a4.53,4.53,0,0,1,1.78-2.31,5.15,5.15,0,0,1,2.6-.88l.48,0A2.29,2.29,0,0,1,260.61,12.36Z"/><path class="cls-4" d="M276.94,24.14a2.47,2.47,0,0,1,.49,1.6,2.25,2.25,0,0,1-1.33,2.07,13.18,13.18,0,0,1-2.74,1,12.18,12.18,0,0,1-2.91.39,10.59,10.59,0,0,1-4.86-1.05,7.49,7.49,0,0,1-3.2-3,9.19,9.19,0,0,1-1.12-4.62,9.34,9.34,0,0,1,1.07-4.5,7.71,7.71,0,0,1,3-3.09,8.54,8.54,0,0,1,4.33-1.1,8.09,8.09,0,0,1,4.11,1,7,7,0,0,1,2.74,2.89,9.41,9.41,0,0,1,1,4.39,1.83,1.83,0,0,1-.36,1.21,1.28,1.28,0,0,1-1,.42h-9A3.72,3.72,0,0,0,268.19,24a3.57,3.57,0,0,0,2.41.71,6.16,6.16,0,0,0,1.56-.19,15,15,0,0,0,1.6-.53q.51-.2,1-.36a3,3,0,0,1,.9-.15A1.56,1.56,0,0,1,276.94,24.14Zm-9-7.53a3.67,3.67,0,0,0-.85,2.23h5.34q-.2-3-2.58-3A2.48,2.48,0,0,0,267.95,16.61Z"/><path class="cls-4" d="M281.86,26.86a8.36,8.36,0,0,1-2.38-6.29,9.09,9.09,0,0,1,1.16-4.62,7.84,7.84,0,0,1,3.25-3.09,10.19,10.19,0,0,1,4.78-1.09,11.25,11.25,0,0,1,2.86.37A9,9,0,0,1,294,13.19a2.16,2.16,0,0,1,1.05,2,2.81,2.81,0,0,1-.49,1.72,1.52,1.52,0,0,1-1.27.66,3.22,3.22,0,0,1-1-.15,6.63,6.63,0,0,1-1.05-.46,11.39,11.39,0,0,0-1.16-.46,3.42,3.42,0,0,0-1.05-.15q-3.37,0-3.37,4.11a4.84,4.84,0,0,0,.87,3.11,3,3,0,0,0,2.5,1.07,3.62,3.62,0,0,0,1.07-.15,7.55,7.55,0,0,0,1.1-.46q.68-.3,1.1-.46a2.75,2.75,0,0,1,.94-.15,1.52,1.52,0,0,1,1.27.66,2.8,2.8,0,0,1,.49,1.72,2.52,2.52,0,0,1-.27,1.17,1.89,1.89,0,0,1-.75.8,10.79,10.79,0,0,1-5.71,1.43A8.87,8.87,0,0,1,281.86,26.86Z"/><path class="cls-4" d="M309.63,26.83a2,2,0,0,1-.92,1.77,4.42,4.42,0,0,1-2.62.48l-1-.07a7,7,0,0,1-4.64-1.85,6.16,6.16,0,0,1-1.58-4.5v-6h-1q-2.72,0-2.72-2.24t2.72-2.21h1V10a2.69,2.69,0,0,1,.82-2.06,3.58,3.58,0,0,1,4.42,0A2.69,2.69,0,0,1,305,10v2.21h1.87q2.72,0,2.72,2.21t-2.72,2.24H305v6.53a1.58,1.58,0,0,0,.39,1.09,1.39,1.39,0,0,0,1,.48l1,.07Q309.63,24.92,309.63,26.83Z"/><line class="cls-5" x1="49" y1="387" x2="49" y2="390"/><polyline class="cls-5" points="49 401 49 404 52 404"/><line class="cls-6" x1="64.03" y1="404" x2="418.98" y2="404"/><polyline class="cls-5" points="425 404 428 404 428 401"/><line class="cls-5" x1="428" y1="390" x2="428" y2="387"/><line class="cls-5" x1="49" y1="163" x2="49" y2="166"/><polyline class="cls-5" points="49 177 49 180 52 180"/><line class="cls-7" x1="63.81" y1="180" x2="235.09" y2="180"/><polyline class="cls-5" points="241 180 244 180 244 177"/><line class="cls-5" x1="244" y1="166" x2="244" y2="163"/><path class="cls-8" d="M390,62.81v77.89a6.07,6.07,0,0,0,6.06,6.06h47v-90H396A6.07,6.07,0,0,0,390,62.81Z"/><path class="cls-1" d="M390,285.81v77.89a6.07,6.07,0,0,0,6.06,6.06h47v-90H396A6.07,6.07,0,0,0,390,285.81Z"/></svg>