<svg id="Layer_1" data-name="Layer 1" xmlns="http://www.w3.org/2000/svg" viewBox="0 0 682 590"><defs><style>.cls-1{fill:#fff;}</style></defs><title>leftBigCloud</title><path class="cls-1" d="M595.5,436h-36a13.5,13.5,0,0,0,0,27h36a13.5,13.5,0,0,0,0-27Z"/><path class="cls-1" d="M636,222H533.89A293.81,293.81,0,0,0,484,118h43a28,28,0,0,0,28-28h0a28,28,0,0,0-28-28H479.95A17,17,0,0,0,467,34H385.57A293.68,293.68,0,0,0,248,0H0V590H248a293.94,293.94,0,0,0,121.27-26H522.5a11.5,11.5,0,0,0,0-23h-30A22.92,22.92,0,0,0,499,525h0a23,23,0,0,0-23-23H458.16a295.65,295.65,0,0,0,56.64-81H551.5A25.5,25.5,0,0,0,577,395.5h0A25.5,25.5,0,0,0,551.5,370H533.37A295.43,295.43,0,0,0,543,295h0c0-7.06-.26-14.06-.75-21H571a17,17,0,0,0,17-17h0a17,17,0,0,0-9-15h57a10,10,0,0,0,0-20Z"/><path class="cls-1" d="M672,139H614a10,10,0,0,0,0,20h58a10,10,0,0,0,0-20Z"/></svg>