<svg id="Layer_1" data-name="Layer 1" xmlns="http://www.w3.org/2000/svg" viewBox="0 0 692 590"><defs><style>.cls-1{fill:#fff;}</style></defs><title>rightBigCloud</title><path class="cls-1" d="M445,0A293.68,293.68,0,0,0,307.43,34H226a17,17,0,0,0-12.95,28H166a28,28,0,0,0-28,28h0a28,28,0,0,0,28,28h43a293.81,293.81,0,0,0-49.88,104H57a10,10,0,0,0,0,20h57a17,17,0,0,0-9,15h0a17,17,0,0,0,17,17h28.75c-.49,6.94-.75,13.94-.75,21h0a295.43,295.43,0,0,0,9.63,75H141.5A25.5,25.5,0,0,0,116,395.5h0A25.5,25.5,0,0,0,141.5,421h36.71a295.65,295.65,0,0,0,56.64,81H217a23,23,0,0,0-23,23h0a22.92,22.92,0,0,0,6.49,16h-30a11.5,11.5,0,0,0,0,23H323.73A293.94,293.94,0,0,0,445,590H693V0Z"/><path class="cls-1" d="M133.5,436h-36a13.5,13.5,0,0,0,0,27h36a13.5,13.5,0,0,0,0-27Z"/><path class="cls-1" d="M78,149a10,10,0,0,0-10-10H10a10,10,0,0,0,0,20H68A10,10,0,0,0,78,149Z"/></svg>