<svg id="Layer_1" data-name="Layer 1" xmlns="http://www.w3.org/2000/svg" viewBox="0 0 118 118"><defs><style>.cls-1{fill:#f9be02;}.cls-2{fill:#002c3a;}</style></defs><title>smileyEmoji</title><circle class="cls-1" cx="59" cy="59" r="57"/><path class="cls-2" d="M59,94.85A32.18,32.18,0,0,0,91.18,62.68H26.82A32.18,32.18,0,0,0,59,94.85Z"/><path class="cls-2" d="M47,49.81c0-.13,0-.25,0-.38a9.88,9.88,0,1,0-19.77,0c0,.13,0,.25,0,.38Z"/><path class="cls-2" d="M82.27,51.55a15.67,15.67,0,0,1-7.78-2.06,3.1,3.1,0,0,1,3-5.4,10.32,10.32,0,0,0,9.77,0,3.1,3.1,0,0,1,3.17,5.33A17.16,17.16,0,0,1,82.27,51.55Z"/></svg>